<?xml version="1.0" encoding="utf-8"?>
<svg viewBox="180.7 231.483 65.199 68.401" xmlns="http://www.w3.org/2000/svg">
  <path d="M 238.738 271.384 L 238.738 271.384 C 244.101 271.384 247.591 277.105 245.055 281.831 C 239.092 292.948 227.157 300.385 213.542 299.858 C 195.821 299.172 181.389 284.722 180.725 267 C 179.994 247.511 195.576 231.483 214.901 231.483 C 227.899 231.483 239.206 238.737 244.991 249.417 C 247.573 254.185 244.163 259.984 238.74 259.984 L 238.74 259.984 C 236.157 259.984 233.732 258.611 232.518 256.331 C 228.864 249.469 221.31 244.98 212.835 245.837 C 203.245 246.809 195.637 254.707 194.996 264.324 C 194.222 275.938 203.45 285.634 214.901 285.634 C 222.49 285.634 229.106 281.373 232.474 275.12 C 233.714 272.816 236.122 271.384 238.738 271.384" style="fill-opacity: 1; fill-rule: nonzero; stroke: none; fill: rgb(61, 61, 61);" id="path124"/>
  <path d="M 226.301 265.684 C 226.301 271.98 221.197 277.084 214.901 277.084 C 208.605 277.084 203.501 271.98 203.501 265.684 C 203.501 259.387 208.605 254.284 214.901 254.284 C 221.197 254.284 226.301 259.387 226.301 265.684" style="fill-opacity: 1; fill-rule: nonzero; stroke: none; fill: rgb(61, 61, 61);" id="path128"/>
</svg>